<svg xmlns="http://www.w3.org/2000/svg" viewBox="0 0 121.65 121.65"><defs><style>.cls-1{fill:none;stroke:#33383c;stroke-linecap:round;stroke-linejoin:round;stroke-width:2px;}</style></defs><g id="Capa_2" data-name="Capa 2"><g id="An_Mensaje_4" data-name="An Mensaje 4"><polyline class="cls-1" points="76.04 36.68 111.94 36.68 120.65 36.68 120.65 1 76.04 1 45.61 1 1 1 1 36.68 9.71 36.68 45.61 36.68"/><polyline class="cls-1" points="76.04 36.68 111.94 36.68 111.94 120.65 9.71 120.65 9.71 36.68 45.61 36.68"/><line class="cls-1" x1="63.72" y1="60.82" x2="57.93" y2="60.82"/><polyline class="cls-1" points="45.61 45.88 45.61 1 76.04 1 76.04 45.88"/><path class="cls-1" d="M45.61,45.88A15.22,15.22,0,0,0,57.93,60.82a14.45,14.45,0,0,0,2.89.28,15.41,15.41,0,0,0,2.9-.28A15.22,15.22,0,0,0,76,45.88"/></g></g></svg>