<svg xmlns="http://www.w3.org/2000/svg" width="25.973" height="25.973" viewBox="0 0 25.973 25.973">
  <path id="Icon_simple-instagram" data-name="Icon simple-instagram" d="M12.987,0C9.459,0,9.018.016,7.633.078a9.576,9.576,0,0,0-3.153.6,6.36,6.36,0,0,0-2.3,1.5,6.336,6.336,0,0,0-1.5,2.3,9.548,9.548,0,0,0-.6,3.153C.013,9.018,0,9.459,0,12.987s.016,3.969.078,5.354a9.582,9.582,0,0,0,.6,3.153,6.369,6.369,0,0,0,1.5,2.3,6.351,6.351,0,0,0,2.3,1.5,9.588,9.588,0,0,0,3.153.6c1.385.065,1.826.078,5.354.078s3.969-.016,5.354-.078a9.61,9.61,0,0,0,3.153-.6,6.637,6.637,0,0,0,3.8-3.8,9.582,9.582,0,0,0,.6-3.153c.065-1.385.078-1.826.078-5.354s-.016-3.969-.078-5.354a9.6,9.6,0,0,0-.6-3.153,6.374,6.374,0,0,0-1.5-2.3,6.328,6.328,0,0,0-2.3-1.5,9.554,9.554,0,0,0-3.153-.6C16.955.013,16.515,0,12.987,0Zm0,2.338c3.466,0,3.88.017,5.249.077a7.155,7.155,0,0,1,2.41.449,4.274,4.274,0,0,1,2.465,2.464,7.17,7.17,0,0,1,.447,2.41c.062,1.37.076,1.781.076,5.249s-.016,3.88-.08,5.249a7.308,7.308,0,0,1-.456,2.41,4.124,4.124,0,0,1-.973,1.5,4.052,4.052,0,0,1-1.493.97,7.223,7.223,0,0,1-2.419.447c-1.379.062-1.785.076-5.259.076s-3.881-.016-5.259-.08a7.364,7.364,0,0,1-2.42-.456,4.022,4.022,0,0,1-1.492-.973,3.943,3.943,0,0,1-.974-1.493,7.37,7.37,0,0,1-.455-2.419c-.049-1.364-.066-1.785-.066-5.242s.017-3.881.066-5.261a7.362,7.362,0,0,1,.455-2.418A3.85,3.85,0,0,1,3.783,3.8a3.841,3.841,0,0,1,1.492-.972,7.188,7.188,0,0,1,2.4-.456c1.38-.049,1.786-.065,5.259-.065l.049.032Zm0,3.98a6.669,6.669,0,1,0,6.669,6.669A6.668,6.668,0,0,0,12.987,6.318Zm0,11a4.329,4.329,0,1,1,4.329-4.329A4.328,4.328,0,0,1,12.987,17.316ZM21.478,6.055A1.558,1.558,0,1,1,19.919,4.5,1.559,1.559,0,0,1,21.478,6.055Z"/>
</svg>
