<svg xmlns="http://www.w3.org/2000/svg" width="25.973" height="25.973" viewBox="0 0 25.973 25.973">
  <path id="Icon_simple-linkedin" data-name="Icon simple-linkedin" d="M22.128,22.134H18.282V16.107c0-1.437-.029-3.287-2-3.287-2.005,0-2.312,1.564-2.312,3.181v6.133H10.12V9.74h3.695v1.689h.05a4.053,4.053,0,0,1,3.647-2c3.9,0,4.618,2.565,4.618,5.9v6.8ZM5.776,8.044A2.234,2.234,0,1,1,8.01,5.809,2.232,2.232,0,0,1,5.776,8.044ZM7.7,22.134H3.847V9.74H7.7ZM24.052,0H1.917A1.894,1.894,0,0,0,0,1.871V24.1a1.893,1.893,0,0,0,1.917,1.871H24.049A1.9,1.9,0,0,0,25.973,24.1V1.871A1.9,1.9,0,0,0,24.049,0Z"/>
</svg>
