<svg xmlns="http://www.w3.org/2000/svg" viewBox="0 0 114.78 40.24"><defs><style>.cls-1{fill:#33383c;}.cls-2{fill:none;stroke:#33383c;stroke-miterlimit:10;stroke-width:3px;}</style></defs><g id="Capa_2" data-name="Capa 2"><g id="Capa_1-2" data-name="Capa 1"><g id="Grupo_6" data-name="Grupo 6"><path class="cls-1" d="M70,20.11A10.07,10.07,0,1,0,80.1,30.17,10.07,10.07,0,0,0,70,20.11Zm3.58,5.44a1.23,1.23,0,1,1-1.22,1.22A1.23,1.23,0,0,1,73.62,25.55Zm-7.41,0A1.23,1.23,0,1,1,65,26.77,1.23,1.23,0,0,1,66.21,25.55ZM70,36A5.92,5.92,0,0,1,64.07,30H75.92A5.93,5.93,0,0,1,70,36Z"/><g id="Grupo_4" data-name="Grupo 4"><path id="Trazado_7" data-name="Trazado 7" class="cls-1" d="M4.83,39.34H0v-19H1.17l1.59,2.25A8.57,8.57,0,0,1,8.5,20.41h4.26v4.81H8.5a3.78,3.78,0,0,0-1.44.29,3.55,3.55,0,0,0-1.94,1.94,3.78,3.78,0,0,0-.29,1.44Z"/><path id="Trazado_8" data-name="Trazado 8" class="cls-1" d="M27,33.2a4.57,4.57,0,0,1-1,.88,4.89,4.89,0,0,1-1.23.56,4.47,4.47,0,0,1-1.36.19,5.43,5.43,0,0,1-.57,0,2.66,2.66,0,0,1-.56-.12l9.06-10.92A9.5,9.5,0,0,0,29.71,22a9.79,9.79,0,0,0-10.13-1.67,9.25,9.25,0,0,0-5.16,5.2,10.74,10.74,0,0,0-.76,4.11,10.31,10.31,0,0,0,.76,4,9.65,9.65,0,0,0,2.08,3.16,9.79,9.79,0,0,0,9.15,2.54,9.24,9.24,0,0,0,2.14-.81,9.36,9.36,0,0,0,1.9-1.29,9.7,9.7,0,0,0,1.55-1.71L27.69,32A4.54,4.54,0,0,1,27,33.2Zm-8.14-1.57c-.05-.21-.1-.44-.15-.67a5.25,5.25,0,0,1-.08-.68q0-.33,0-.6a5.73,5.73,0,0,1,.37-2.13,5,5,0,0,1,1-1.62,4.53,4.53,0,0,1,1.52-1,5,5,0,0,1,1.87-.36,5.17,5.17,0,0,1,.68,0,2.45,2.45,0,0,1,.66.16L19.05,32.2A2.83,2.83,0,0,1,18.82,31.63Z"/><path id="Trazado_9" data-name="Trazado 9" class="cls-1" d="M57.63,32.48a6.91,6.91,0,0,1-.57,2.8,7.18,7.18,0,0,1-1.55,2.3,7.49,7.49,0,0,1-2.3,1.54,7,7,0,0,1-2.82.56,7.08,7.08,0,0,1-4.83-1.84,7,7,0,0,1-4.82,1.84,6.92,6.92,0,0,1-2.81-.56,7.49,7.49,0,0,1-2.3-1.54,7.35,7.35,0,0,1-1.55-2.3,6.9,6.9,0,0,1-.56-2.8V20.41h4.83V32.48a2.31,2.31,0,0,0,.19.93,2.39,2.39,0,0,0,1.27,1.27,2.28,2.28,0,0,0,.93.19,2.36,2.36,0,0,0,.94-.19,2.51,2.51,0,0,0,.78-.51,2.37,2.37,0,0,0,.71-1.69V20.41H48V32.48a2.29,2.29,0,0,0,.2.93,2.45,2.45,0,0,0,.52.76,2.31,2.31,0,0,0,.76.51,2.28,2.28,0,0,0,.93.19,2.44,2.44,0,0,0,1.71-.7,2.63,2.63,0,0,0,.52-.76,2.32,2.32,0,0,0,.2-.93V20.41h4.81Z"/><path id="Trazado_10" data-name="Trazado 10" class="cls-1" d="M87,39.34H82.13v-19H83.3l1.6,2.25a8.54,8.54,0,0,1,5.73-2.21H94.9v4.81H90.63a3.69,3.69,0,0,0-1.43.29A3.61,3.61,0,0,0,87,28.89Z"/><path id="Trazado_11" data-name="Trazado 11" class="cls-1" d="M102,39.33H97.15V12.83H102V29.55l7.2-9.14h5.56l-6.28,7.9,6.28,11h-5.55l-3.84-6.89L102,36.92Z"/></g><path id="Trazado_13" data-name="Trazado 13" class="cls-2" d="M93.07,9.87a8.1,8.1,0,0,1,11.38-1.4,8.43,8.43,0,0,1,1.4,1.4"/><path id="Trazado_14" data-name="Trazado 14" class="cls-2" d="M88.53,6.79a13.74,13.74,0,0,1,19.29-2.38,13.4,13.4,0,0,1,2.38,2.38"/></g></g></g></svg>