<svg xmlns="http://www.w3.org/2000/svg" viewBox="0 0 633.11 151.17"><defs><style>.cls-1{fill:#fff;}.cls-2{fill:#212121;}</style></defs><g id="Capa_2" data-name="Capa 2"><g id="Capa_1-2" data-name="Capa 1"><circle class="cls-1" cx="386.32" cy="95.67" r="55.5"/><path class="cls-1" d="M26.66,146.19H0V41.6H6.45L15.23,54A47.14,47.14,0,0,1,46.88,41.8H70.41V68.36H46.88A20.27,20.27,0,0,0,39,69.92,19.81,19.81,0,0,0,28.22,80.66a20.26,20.26,0,0,0-1.56,7.91Z"/><path class="cls-1" d="M122.46,120.61a15.65,15.65,0,0,0,3.13.63q1.56.15,3.12.15a26.15,26.15,0,0,0,7.52-1.08,27.17,27.17,0,0,0,6.79-3.07A25.74,25.74,0,0,0,152.73,106l19.54,19.63a53.13,53.13,0,0,1-8.55,9.47,54.24,54.24,0,0,1-10.45,7.13,52.36,52.36,0,0,1-11.81,4.44,53.6,53.6,0,0,1-12.75,1.51A52.8,52.8,0,0,1,91,132.62a53.8,53.8,0,0,1-11.48-17.43A57.38,57.38,0,0,1,75.29,93a59.26,59.26,0,0,1,4.2-22.66A51.23,51.23,0,0,1,108,41.6a53.9,53.9,0,0,1,20.75-4,52.57,52.57,0,0,1,12.79,1.56,53.89,53.89,0,0,1,11.87,4.49,54.71,54.71,0,0,1,10.5,7.18,53.16,53.16,0,0,1,8.59,9.52Zm13.67-55a15.55,15.55,0,0,0-3.66-.87,35,35,0,0,0-3.76-.2,26.7,26.7,0,0,0-10.3,2,24.59,24.59,0,0,0-8.4,5.72,26.89,26.89,0,0,0-5.62,8.93,32.14,32.14,0,0,0-2,11.77c0,1,0,2.08.15,3.32s.26,2.49.49,3.76.5,2.49.83,3.66a13.65,13.65,0,0,0,1.27,3.13Z"/><path class="cls-1" d="M317.87,108.4a38.86,38.86,0,0,1-3.12,15.48,39.76,39.76,0,0,1-8.55,12.64,40.63,40.63,0,0,1-12.69,8.5,39.13,39.13,0,0,1-15.58,3.12,40.06,40.06,0,0,1-14.26-2.58,39.42,39.42,0,0,1-12.4-7.57A38.46,38.46,0,0,1,239,145.56a39.88,39.88,0,0,1-14.3,2.58A38.75,38.75,0,0,1,209.18,145a40.8,40.8,0,0,1-12.65-8.5A39.57,39.57,0,0,1,188,123.88a38.69,38.69,0,0,1-3.13-15.48V41.8h26.66v66.6a13,13,0,0,0,1,5.13,13.33,13.33,0,0,0,7,7,12.91,12.91,0,0,0,5.13,1,13.28,13.28,0,0,0,5.17-1,13.76,13.76,0,0,0,4.3-2.84,12.76,12.76,0,0,0,2.88-4.19,13,13,0,0,0,1-5.13V41.8h26.56v66.6a12.51,12.51,0,0,0,1.07,5.13,14.09,14.09,0,0,0,2.88,4.19,13.43,13.43,0,0,0,4.2,2.84,13,13,0,0,0,5.13,1,13.33,13.33,0,0,0,5.18-1,13.16,13.16,0,0,0,4.24-2.84,13.73,13.73,0,0,0,2.88-4.19,12.36,12.36,0,0,0,1.08-5.13V41.8h26.56Z"/><path class="cls-1" d="M479.69,146.19H453V41.6h6.44L468.26,54A47.14,47.14,0,0,1,499.9,41.8h23.54V68.36H499.9A20.22,20.22,0,0,0,492,69.92a19.81,19.81,0,0,0-10.74,10.74,20.26,20.26,0,0,0-1.56,7.91Z"/><path class="cls-1" d="M562.7,146.19H535.84V0H562.7V92.19L602.44,41.8h30.67L598.44,85.35l34.67,60.84H602.44l-21.19-38L562.7,132.81Z"/><circle class="cls-2" cx="365.19" cy="76.92" r="6.76"/><circle class="cls-2" cx="406.07" cy="76.92" r="6.76"/><path class="cls-2" d="M353.36,95a32.68,32.68,0,1,0,65.36,0Z"/></g></g></svg>